<?xml version="1.0" encoding="utf-8"?>
<!-- Generator: Adobe Illustrator 22.0.0, SVG Export Plug-In . SVG Version: 6.00 Build 0)  -->
<svg version="1.0" id="Layer_1" xmlns="http://www.w3.org/2000/svg" xmlns:xlink="http://www.w3.org/1999/xlink" x="0px" y="0px"
	 viewBox="0 0 3000 2000" style="enable-background:new 0 0 3000 2000;" xml:space="preserve">
<style type="text/css">
	.st0{fill:#1A1A1A;}
</style>
<path class="st0" d="M1648.2,1023.3c-52.3-30.2-109.7-52.6-170.6-65.5c116.2-60.4,195.8-181.9,195.8-321.7
	c0-199.9-162.6-362.4-362.4-362.4S948.6,436.2,948.6,636.1c0,139.8,79.6,261.3,195.8,321.7c-264.5,55.9-463.6,291.1-463.6,572h53.4
	c0-292.9,238.3-531.3,531.3-531.3h91.1c94.4,0,183.1,24.7,260,68.1C1626,1051.3,1636.6,1036.8,1648.2,1023.3z M1311,945.1
	c-170.4,0-309-138.6-309-309c0-170.4,138.6-309,309-309c170.4,0,309,138.6,309,309C1620,806.5,1481.4,945.1,1311,945.1z"/>
<g>
	<g>
		<path class="st0" d="M1914.6,1565.3c-173.4,0-314.5-141.1-314.5-314.4s141.1-314.5,314.5-314.5c173.4,0,314.4,141.1,314.4,314.5
			S2087.9,1565.3,1914.6,1565.3z M1914.6,978.2c-150.3,0-272.6,122.3-272.6,272.6c0,150.3,122.3,272.6,272.6,272.6
			c150.3,0,272.6-122.3,272.6-272.6C2187.1,1100.5,2064.8,978.2,1914.6,978.2z"/>
	</g>
	<polygon class="st0" points="2085,1208.2 1957.1,1208.2 1957.1,1080.4 1872,1080.4 1871.9,1208.2 1744.1,1208.2 1744.1,1293.4 
		1871.9,1293.4 1872,1421.2 1957.1,1421.2 1957.1,1293.4 2084.9,1293.4 	"/>
</g>
</svg>
